<svg width="18" height="18" viewBox="0 0 18 18" fill="none" xmlns="http://www.w3.org/2000/svg">
<circle cx="9" cy="9" r="9" fill="#F3CB51"/>
<path d="M8.64619 4.7463C8.77765 4.4179 9.22235 4.4179 9.35381 4.7463L10.1839 6.81988C10.2392 6.95803 10.3634 7.05247 10.5061 7.06481L12.6475 7.25002C12.9866 7.27936 13.124 7.72186 12.8661 7.95416L11.2378 9.42091C11.1293 9.51864 11.0818 9.67144 11.1147 9.81722L11.6081 12.0053C11.6862 12.3518 11.3264 12.6253 11.0356 12.4405L9.19914 11.2734C9.07678 11.1956 8.92322 11.1956 8.80086 11.2734L6.9644 12.4405C6.67356 12.6253 6.31379 12.3518 6.39193 12.0053L6.88529 9.81722C6.91816 9.67144 6.87071 9.51864 6.76222 9.42091L5.13386 7.95416C4.87598 7.72186 5.0134 7.27936 5.35253 7.25002L7.4939 7.06481C7.63657 7.05247 7.7608 6.95803 7.81611 6.81988L8.64619 4.7463Z" fill="#E0AD0F"/>
</svg>
