<svg width="21" height="21" viewBox="0 0 21 21" fill="none" xmlns="http://www.w3.org/2000/svg">
<g clip-path="url(#clip0_2927_4078)">
<path fill-rule="evenodd" clip-rule="evenodd" d="M8.39982 2.16666L15.0665 5.43332L10.0665 7.98332V15.525C12.4332 15.6583 14.2332 16.3417 14.2332 17.1667C14.2332 18.0833 11.9915 18.8333 9.23315 18.8333C6.47482 18.8333 4.23315 18.0833 4.23315 17.1667C4.23315 16.55 5.24149 16.0167 6.73315 15.725V17.1667H8.39982V2.16666ZM18.3998 16.75C18.3998 17.4403 17.8402 18 17.1498 18C16.4595 18 15.8998 17.4403 15.8998 16.75C15.8998 16.0596 16.4595 15.5 17.1498 15.5C17.8402 15.5 18.3998 16.0596 18.3998 16.75Z" fill="black"/>
</g>
<defs>
<clipPath id="clip0_2927_4078">
<rect width="20" height="20" fill="white" transform="translate(0.899902 0.5)"/>
</clipPath>
</defs>
</svg>
