<svg width="191" height="143" viewBox="0 0 191 143" fill="none" xmlns="http://www.w3.org/2000/svg">
<ellipse cx="103" cy="136.5" rx="66" ry="6.5" fill="#E6EFFE"/>
<path fill-rule="evenodd" clip-rule="evenodd" d="M51.6667 19.5C51.092 19.5 50.5409 19.7283 50.1346 20.1346C49.7283 20.5409 49.5 21.092 49.5 21.6667V33.1667H96.9645L83.9324 20.1346C83.7312 19.9334 83.4923 19.7738 83.2295 19.6649C82.9666 19.556 82.6849 19.5 82.4003 19.5H51.6667ZM104.036 33.1667L87.4679 16.5991C86.8025 15.9336 86.0124 15.4057 85.1429 15.0455C84.2734 14.6854 83.3415 14.5 82.4003 14.5H51.6667C49.7659 14.5 47.9431 15.2551 46.5991 16.5991C45.2551 17.9431 44.5 19.7659 44.5 21.6667V106.026L44.5 106.033C44.5053 107.835 45.2234 109.562 46.4976 110.836C47.7718 112.11 49.4984 112.828 51.3004 112.833L51.3077 112.833H154.852C156.615 112.833 158.306 112.133 159.553 110.886C160.8 109.639 161.5 107.948 161.5 106.185V40.3333C161.5 38.4326 160.745 36.6097 159.401 35.2657C158.057 33.9217 156.234 33.1667 154.333 33.1667H104.036ZM49.5 38.1667V106.021C49.5022 106.501 49.6938 106.961 50.0332 107.3C50.3723 107.639 50.8316 107.831 51.3112 107.833H154.852C155.289 107.833 155.708 107.66 156.017 107.351C156.326 107.042 156.5 106.622 156.5 106.185V40.3333C156.5 39.7587 156.272 39.2076 155.865 38.8013C155.459 38.3949 154.908 38.1667 154.333 38.1667H49.5Z" fill="#ABCAFC"/>
<path fill-rule="evenodd" clip-rule="evenodd" d="M77.5636 67.5676C77.5643 67.5653 77.565 67.5629 77.5657 67.5605C77.566 67.5597 77.5662 67.559 77.5657 67.5605L77.5646 67.5642L77.564 67.5664L77.5636 67.5676ZM66.4341 67.5605L66.4397 67.5776C66.4464 67.5976 66.459 67.6338 66.4779 67.6838C66.5159 67.7841 66.5789 67.9384 66.6707 68.1285C66.856 68.5118 67.1502 69.0225 67.5803 69.5286C68.4184 70.5146 69.7757 71.5 71.9999 71.5C74.2241 71.5 75.5814 70.5146 76.4195 69.5286C76.8497 69.0225 77.1438 68.5118 77.3291 68.1285C77.421 67.9384 77.4839 67.7841 77.5219 67.6838C77.5408 67.6338 77.5534 67.5976 77.5601 67.5776L77.5657 67.5605C77.8072 66.7723 78.6403 66.3261 79.4309 66.5633C80.2244 66.8013 80.6747 67.6376 80.4366 68.4311L78.9999 68C80.4366 68.4311 80.4364 68.4318 80.4362 68.4325L80.4357 68.4341L80.4346 68.4377L80.432 68.4461L80.425 68.4686C80.4195 68.486 80.4123 68.5082 80.4033 68.5348C80.3854 68.588 80.3604 68.6593 80.3276 68.7459C80.262 68.919 80.1648 69.1554 80.0301 69.434C79.7623 69.9882 79.3377 70.7276 78.7053 71.4715C77.4184 72.9855 75.2757 74.5 71.9999 74.5C68.7241 74.5 66.5814 72.9855 65.2945 71.4715C64.6622 70.7276 64.2376 69.9882 63.9697 69.434C63.835 69.1554 63.7378 68.919 63.6723 68.7459C63.6394 68.6593 63.6144 68.588 63.5965 68.5348C63.5875 68.5082 63.5803 68.486 63.5748 68.4686L63.5678 68.4461L63.5652 68.4377L63.5641 68.4341L63.5636 68.4325C63.5634 68.4318 63.5632 68.4311 64.9999 68L63.5632 68.4311C63.3251 67.6376 63.7754 66.8013 64.5689 66.5633C65.3595 66.3261 66.1926 66.7723 66.4341 67.5605ZM66.4362 67.5676C66.4362 67.5676 66.4362 67.5677 66.4362 67.5676V67.5676Z" fill="#ABCAFC"/>
<path fill-rule="evenodd" clip-rule="evenodd" d="M121.564 67.5676C121.564 67.5653 121.565 67.5629 121.566 67.5605C121.566 67.5597 121.566 67.559 121.566 67.5605L121.565 67.5642L121.564 67.5664L121.564 67.5676ZM110.434 67.5605L110.44 67.5776C110.446 67.5976 110.459 67.6338 110.478 67.6838C110.516 67.7841 110.579 67.9384 110.671 68.1285C110.856 68.5118 111.15 69.0225 111.58 69.5286C112.418 70.5146 113.776 71.5 116 71.5C118.224 71.5 119.581 70.5146 120.419 69.5286C120.85 69.0225 121.144 68.5118 121.329 68.1285C121.421 67.9384 121.484 67.7841 121.522 67.6838C121.541 67.6338 121.553 67.5976 121.56 67.5776L121.566 67.5605C121.807 66.7723 122.64 66.3261 123.431 66.5633C124.224 66.8013 124.675 67.6376 124.437 68.4311L123 68C124.437 68.4311 124.436 68.4318 124.436 68.4325L124.436 68.4341L124.435 68.4377L124.432 68.4461L124.425 68.4686C124.419 68.486 124.412 68.5082 124.403 68.5348C124.385 68.588 124.36 68.6593 124.328 68.7459C124.262 68.919 124.165 69.1554 124.03 69.434C123.762 69.9882 123.338 70.7276 122.705 71.4715C121.418 72.9855 119.276 74.5 116 74.5C112.724 74.5 110.581 72.9855 109.294 71.4715C108.662 70.7276 108.238 69.9882 107.97 69.434C107.835 69.1554 107.738 68.919 107.672 68.7459C107.639 68.6593 107.614 68.588 107.596 68.5348C107.588 68.5082 107.58 68.486 107.575 68.4686L107.568 68.4461L107.565 68.4377L107.564 68.4341L107.564 68.4325C107.563 68.4318 107.563 68.4311 109 68L107.563 68.4311C107.325 67.6376 107.775 66.8013 108.569 66.5633C109.36 66.3261 110.193 66.7723 110.434 67.5605ZM110.436 67.5676C110.436 67.5676 110.436 67.5677 110.436 67.5676V67.5676Z" fill="#ABCAFC"/>
<path fill-rule="evenodd" clip-rule="evenodd" d="M88.4362 94.4324C88.4355 94.4348 88.4348 94.4372 88.4341 94.4396C88.4336 94.441 88.4338 94.4403 88.4341 94.4396L88.4352 94.4358L88.4359 94.4337L88.4362 94.4324ZM99.5658 94.4396L99.5601 94.4225C99.5534 94.4025 99.5408 94.3663 99.5219 94.3163C99.4839 94.2159 99.421 94.0617 99.3291 93.8715C99.1438 93.4882 98.8497 92.9776 98.4195 92.4715C97.5814 91.4855 96.2241 90.5 93.9999 90.5C91.7757 90.5 90.4184 91.4855 89.5803 92.4715C89.1501 92.9776 88.856 93.4882 88.6707 93.8715C88.5788 94.0617 88.5159 94.2159 88.4779 94.3163C88.459 94.3663 88.4464 94.4025 88.4397 94.4225L88.4341 94.4396C88.1926 95.2278 87.3595 95.674 86.5689 95.4368C85.7754 95.1987 85.3251 94.3625 85.5632 93.569L86.9999 94C85.5632 93.569 85.5634 93.5683 85.5636 93.5675L85.5641 93.5659L85.5652 93.5624L85.5678 93.5539L85.5748 93.5315C85.5803 93.5141 85.5875 93.4919 85.5965 93.4653C85.6144 93.412 85.6394 93.3408 85.6723 93.2541C85.7378 93.081 85.835 92.8447 85.9697 92.566C86.2376 92.0118 86.6622 91.2725 87.2945 90.5286C88.5814 89.0146 90.7241 87.5 93.9999 87.5C97.2757 87.5 99.4184 89.0146 100.705 90.5286C101.338 91.2725 101.762 92.0118 102.03 92.566C102.165 92.8447 102.262 93.081 102.328 93.2541C102.36 93.3408 102.385 93.412 102.403 93.4653C102.412 93.4919 102.419 93.5141 102.425 93.5315L102.432 93.5539L102.435 93.5624L102.436 93.5659L102.436 93.5675C102.436 93.5683 102.437 93.569 101 94L102.437 93.569C102.675 94.3625 102.224 95.1987 101.431 95.4368C100.64 95.674 99.8072 95.2278 99.5658 94.4396ZM99.5636 94.4324C99.5636 94.4324 99.5636 94.4324 99.5636 94.4324V94.4324Z" fill="#ABCAFC"/>
<path d="M33.525 51.6718C16.3903 51.6718 2.49992 40.6643 2.49992 27.0859C2.49992 13.5075 16.3903 2.5 33.525 2.5C50.6597 2.5 64.5501 13.5075 64.5501 27.0859C64.5501 32.1721 62.6012 36.8975 59.2629 40.8188L69.4372 53.5367C70.9039 55.3701 69.0602 57.9808 66.8418 57.2118L45.4414 49.793C41.7724 51.0035 37.7472 51.6718 33.525 51.6718Z" fill="white"/>
<path fill-rule="evenodd" clip-rule="evenodd" d="M33.525 5C49.8525 5 62.0501 15.3991 62.0501 27.0859C62.0501 31.5058 60.3623 35.6707 57.3593 39.1982L56.0217 40.7693L67.1422 54.67L45.4612 47.1539L44.6581 47.4188C41.2448 48.545 37.4841 49.1718 33.525 49.1718C17.1975 49.1718 4.99992 38.7727 4.99992 27.0859C4.99992 15.3991 17.1975 5 33.525 5ZM67.0501 27.0859C67.0501 11.6159 51.4669 0 33.525 0C15.5831 0 -7.62939e-05 11.6159 -7.62939e-05 27.0859C-7.62939e-05 42.556 15.5831 54.1718 33.525 54.1718C37.7006 54.1718 41.7068 53.5566 45.4066 52.4269L66.023 59.5739C70.6099 61.164 74.4221 55.7659 71.3894 51.975L62.4534 40.8051C65.35 36.8177 67.0501 32.1313 67.0501 27.0859Z" fill="#ABCAFC"/>
<path d="M35.9624 26.5C37.1999 26.5 38.2593 26.0594 39.1405 25.1781C40.0218 24.2969 40.4624 23.2375 40.4624 22C40.4624 20.7625 40.0218 19.7031 39.1405 18.8219C38.2593 17.9406 37.1999 17.5 35.9624 17.5C34.7249 17.5 33.6655 17.9406 32.7843 18.8219C31.903 19.7031 31.4624 20.7625 31.4624 22C31.4624 23.2375 31.903 24.2969 32.7843 25.1781C33.6655 26.0594 34.7249 26.5 35.9624 26.5ZM44.9624 35.5V32.35C44.9624 31.7125 44.7983 31.1266 44.4702 30.5922C44.1421 30.0578 43.7062 29.65 43.1624 29.3687C41.9999 28.7875 40.8187 28.3516 39.6187 28.0609C38.4187 27.7703 37.1999 27.625 35.9624 27.625C34.7249 27.625 33.5062 27.7703 32.3062 28.0609C31.1062 28.3516 29.9249 28.7875 28.7624 29.3687C28.2187 29.65 27.7827 30.0578 27.4546 30.5922C27.1265 31.1266 26.9624 31.7125 26.9624 32.35V35.5H44.9624Z" fill="#ABCAFC"/>
<path d="M150.461 99.9221C161.209 99.9221 169.922 91.2091 169.922 80.461C169.922 69.713 161.209 61 150.461 61C139.713 61 131 69.713 131 80.461C131 91.2091 139.713 99.9221 150.461 99.9221Z" fill="white" stroke="#ABCAFC" stroke-width="5" stroke-miterlimit="10"/>
<path d="M162.818 95.6545L165.744 92.7286L171.596 98.5803L168.67 101.506L162.818 95.6545ZM187.597 111.29C188.254 111.946 188.254 113.011 187.597 113.667L183.757 117.507C183.101 118.164 182.036 118.164 181.38 117.507L168.213 104.341C167.557 103.684 167.557 102.62 168.213 101.964L172.053 98.1233C172.71 97.4668 173.774 97.4668 174.43 98.1233L187.597 111.29Z" stroke="#ABCAFC" stroke-width="5" stroke-miterlimit="10"/>
</svg>
