<svg width="56" height="56" viewBox="0 0 56 56" fill="none" xmlns="http://www.w3.org/2000/svg">
<path d="M44.3335 18.6667V14.0001H39.6668V9.33341H44.3335V4.66675H49.0002V9.33341H53.6668V14.0001H49.0002V18.6667H44.3335ZM7.00016 51.3334C5.71683 51.3334 4.61861 50.8769 3.7055 49.9637C2.79083 49.0491 2.3335 47.9501 2.3335 46.6667V18.6667C2.3335 17.3834 2.79083 16.2852 3.7055 15.3721C4.61861 14.4574 5.71683 14.0001 7.00016 14.0001H14.3502L18.6668 9.33341H32.6668V14.0001H20.7085L16.4502 18.6667H7.00016V46.6667H44.3335V25.6667H49.0002V46.6667C49.0002 47.9501 48.5436 49.0491 47.6305 49.9637C46.7158 50.8769 45.6168 51.3334 44.3335 51.3334H7.00016ZM25.6668 43.1667C28.5835 43.1667 31.0631 42.1463 33.1055 40.1054C35.1464 38.063 36.1668 35.5834 36.1668 32.6667C36.1668 29.7501 35.1464 27.2705 33.1055 25.2281C31.0631 23.1872 28.5835 22.1667 25.6668 22.1667C22.7502 22.1667 20.2706 23.1872 18.2282 25.2281C16.1873 27.2705 15.1668 29.7501 15.1668 32.6667C15.1668 35.5834 16.1873 38.063 18.2282 40.1054C20.2706 42.1463 22.7502 43.1667 25.6668 43.1667ZM25.6668 38.5001C24.0335 38.5001 22.6529 37.9362 21.5252 36.8084C20.3974 35.6806 19.8335 34.3001 19.8335 32.6667C19.8335 31.0334 20.3974 29.6529 21.5252 28.5251C22.6529 27.3973 24.0335 26.8334 25.6668 26.8334C27.3002 26.8334 28.6807 27.3973 29.8085 28.5251C30.9363 29.6529 31.5002 31.0334 31.5002 32.6667C31.5002 34.3001 30.9363 35.6806 29.8085 36.8084C28.6807 37.9362 27.3002 38.5001 25.6668 38.5001Z" fill="#357EF8"/>
</svg>
