<svg width="20" height="20" viewBox="0 0 20 20" fill="none" xmlns="http://www.w3.org/2000/svg">
<path d="M4.49992 16.6667L3.33325 15.5L11.3333 7.5H9.16658V9.16667H7.49992V5.83334H12.3541C12.5763 5.83334 12.7916 5.875 12.9999 5.95834C13.2083 6.04167 13.3888 6.15972 13.5416 6.3125L16.0416 8.79167C16.4166 9.16667 16.8749 9.45834 17.4166 9.66667C17.9583 9.875 18.5416 9.98611 19.1666 10V11.6667C18.3055 11.6667 17.5242 11.5347 16.8228 11.2708C16.1214 11.0069 15.4999 10.6111 14.9583 10.0833L14.1249 9.20834L12.2916 11.0417L14.1666 12.9167L8.70825 16.0625L7.87492 14.625L11.4583 12.5625L10.0416 11.1458L4.49992 16.6667ZM2.49992 10.8333V9.16667H6.66658V10.8333H2.49992ZM0.833252 8.33334V6.66667H4.99992V8.33334H0.833252ZM16.2291 6.66667C15.7708 6.66667 15.3749 6.50347 15.0416 6.17709C14.7083 5.8507 14.5416 5.45834 14.5416 5C14.5416 4.54167 14.7083 4.14931 15.0416 3.82292C15.3749 3.49653 15.7708 3.33334 16.2291 3.33334C16.6874 3.33334 17.0833 3.49653 17.4166 3.82292C17.7499 4.14931 17.9166 4.54167 17.9166 5C17.9166 5.45834 17.7499 5.8507 17.4166 6.17709C17.0833 6.50347 16.6874 6.66667 16.2291 6.66667ZM2.49992 5.83334V4.16667H6.66658V5.83334H2.49992Z" fill="white"/>
</svg>
