<svg width="20" height="20" viewBox="0 0 20 20" fill="none" xmlns="http://www.w3.org/2000/svg">
<path d="M13.3333 14.1675H7.8125C7.49306 14.1675 7.23264 14.2647 7.03125 14.4591C6.82986 14.6536 6.70833 14.8758 6.66667 15.1258C6.625 15.3758 6.66319 15.6189 6.78125 15.855C6.89931 16.0911 7.11111 16.2647 7.41667 16.3758L12.1875 18.2716C12.3264 18.3272 12.4618 18.3446 12.5938 18.3237C12.7257 18.3029 12.8472 18.2578 12.9583 18.1883C13.0694 18.1189 13.1597 18.0251 13.2292 17.9071C13.2986 17.789 13.3333 17.6536 13.3333 17.5008V14.1675ZM8.33333 1.66748C9.25 1.66748 10.0347 1.99387 10.6875 2.64665C11.3403 3.29942 11.6667 4.08415 11.6667 5.00081C11.6667 5.91748 11.3403 6.7022 10.6875 7.35498C10.0347 8.00776 9.25 8.33415 8.33333 8.33415C7.41667 8.33415 6.63194 8.00776 5.97917 7.35498C5.32639 6.7022 5 5.91748 5 5.00081C5 4.08415 5.32639 3.29942 5.97917 2.64665C6.63194 1.99387 7.41667 1.66748 8.33333 1.66748ZM16.0208 9.16748C16.4236 9.16748 16.7708 9.3029 17.0625 9.57373C17.3542 9.84456 17.5 10.1814 17.5 10.5841C17.5 10.9036 17.4097 11.1953 17.2292 11.4591C17.0486 11.723 16.8056 11.9105 16.5 12.0216L15 12.5008H7.8125C7.02083 12.5008 6.35417 12.7716 5.8125 13.3133C5.27083 13.855 5 14.5216 5 15.3133C5 15.5633 5.03472 15.8029 5.10417 16.0321C5.17361 16.2612 5.26389 16.473 5.375 16.6675H2.5V13.3341C2.5 12.1814 2.90625 11.1987 3.71875 10.3862C4.53125 9.57373 5.51389 9.16748 6.66667 9.16748H16.0208Z" fill="white"/>
</svg>
