<svg width="21" height="21" viewBox="0 0 21 21" fill="none" xmlns="http://www.w3.org/2000/svg">
<path d="M10.5001 14.6667C11.6529 14.6667 12.6355 14.2605 13.448 13.448C14.2605 12.6355 14.6667 11.6529 14.6667 10.5001C14.6667 9.3473 14.2605 8.36467 13.448 7.55217C12.6355 6.73967 11.6529 6.33342 10.5001 6.33342C9.3473 6.33342 8.36467 6.73967 7.55217 7.55217C6.73967 8.36467 6.33342 9.3473 6.33342 10.5001C6.33342 11.6529 6.73967 12.6355 7.55217 13.448C8.36467 14.2605 9.3473 14.6667 10.5001 14.6667ZM10.5001 18.8334C9.3473 18.8334 8.26397 18.6147 7.25008 18.1772C6.23619 17.7397 5.35425 17.1459 4.60425 16.3959C3.85425 15.6459 3.2605 14.764 2.823 13.7501C2.3855 12.7362 2.16675 11.6529 2.16675 10.5001C2.16675 9.3473 2.3855 8.26397 2.823 7.25008C3.2605 6.23619 3.85425 5.35425 4.60425 4.60425C5.35425 3.85425 6.23619 3.2605 7.25008 2.823C8.26397 2.3855 9.3473 2.16675 10.5001 2.16675C11.6529 2.16675 12.7362 2.3855 13.7501 2.823C14.764 3.2605 15.6459 3.85425 16.3959 4.60425C17.1459 5.35425 17.7397 6.23619 18.1772 7.25008C18.6147 8.26397 18.8334 9.3473 18.8334 10.5001C18.8334 11.6529 18.6147 12.7362 18.1772 13.7501C17.7397 14.764 17.1459 15.6459 16.3959 16.3959C15.6459 17.1459 14.764 17.7397 13.7501 18.1772C12.7362 18.6147 11.6529 18.8334 10.5001 18.8334ZM10.5001 17.1667C12.3612 17.1667 13.9376 16.5209 15.2292 15.2292C16.5209 13.9376 17.1667 12.3612 17.1667 10.5001C17.1667 8.63897 16.5209 7.06258 15.2292 5.77092C13.9376 4.47925 12.3612 3.83341 10.5001 3.83341C8.63897 3.83341 7.06258 4.47925 5.77092 5.77092C4.47925 7.06258 3.83341 8.63897 3.83341 10.5001C3.83341 12.3612 4.47925 13.9376 5.77092 15.2292C7.06258 16.5209 8.63897 17.1667 10.5001 17.1667Z" fill="black"/>
</svg>
