<svg width="24" height="24" viewBox="0 0 24 24" fill="none" xmlns="http://www.w3.org/2000/svg">
<path d="M5.40039 9.49998H2.20039C2.26706 9.26664 2.35456 9.04581 2.46289 8.83748C2.57122 8.62914 2.70039 8.42498 2.85039 8.22498L6.70039 3.07498C6.98372 2.69164 7.36289 2.43748 7.83789 2.31248C8.31289 2.18748 8.76706 2.24164 9.20039 2.47498L9.90039 2.82498C10.2504 3.00831 10.5212 3.25831 10.7129 3.57498C10.9046 3.89164 11.0004 4.24164 11.0004 4.62498V6.72498L12.8504 6.24998C13.3504 6.11664 13.8337 6.17914 14.3004 6.43748C14.7671 6.69581 15.0837 7.06664 15.2504 7.54998L16.8754 12.45L21.1254 16.7C21.4587 17.0333 21.6879 17.3916 21.8129 17.775C21.9379 18.1583 22.0004 18.5666 22.0004 19C22.0004 19.6166 21.8337 20.1666 21.5004 20.65C21.1671 21.1333 20.7337 21.4916 20.2004 21.725L8.85039 10.875C8.36706 10.425 7.83372 10.0833 7.25039 9.84998C6.66706 9.61664 6.05039 9.49998 5.40039 9.49998ZM14.1504 22C13.6504 22 13.1754 21.9083 12.7254 21.725C12.2754 21.5416 11.8587 21.2833 11.4754 20.95L3.35039 13.575C3.03372 13.2916 2.77539 12.9708 2.57539 12.6125C2.37539 12.2541 2.23372 11.8833 2.15039 11.5H5.40039C5.78372 11.5 6.15456 11.5666 6.51289 11.7C6.87122 11.8333 7.19206 12.0416 7.47539 12.325L17.5754 22H14.1504Z" fill="black"/>
</svg>
