<svg width="24" height="16" viewBox="0 0 24 16" fill="none" xmlns="http://www.w3.org/2000/svg">
<path d="M23.4023 3.69587C23.1666 3.52389 22.8803 3.4133 22.5761 3.3767C22.272 3.3401 21.9621 3.37897 21.682 3.48887L16.473 5.51242L13.4401 0.740788C13.2974 0.516272 13.0886 0.329192 12.8354 0.198939C12.5821 0.0686859 12.2937 0 11.9998 0C11.706 0 11.4175 0.0686859 11.1642 0.198939C10.911 0.329192 10.7022 0.516272 10.5595 0.740788L7.52652 5.51233L2.3167 3.48852C2.03639 3.37966 1.72687 3.34136 1.423 3.37791C1.11914 3.41447 0.832974 3.52444 0.596735 3.69544C0.360496 3.86644 0.18356 4.09168 0.085844 4.34581C-0.0118716 4.59993 -0.0264864 4.87286 0.043645 5.13385L2.66394 14.8845C2.7138 15.0732 2.80716 15.2511 2.93833 15.4073C3.06949 15.5635 3.23571 15.6946 3.42682 15.7928C3.61893 15.8916 3.83181 15.9557 4.05282 15.9813C4.27382 16.0068 4.49845 15.9932 4.71334 15.9414C9.48016 14.7912 14.5144 14.7908 19.2815 15.9402C19.4963 15.992 19.7208 16.0055 19.9417 15.9799C20.1626 15.9544 20.3754 15.8903 20.5674 15.7916C20.7584 15.6935 20.9246 15.5624 21.0557 15.4064C21.1869 15.2503 21.2803 15.0726 21.3303 14.8839L23.9551 5.13464C24.0265 4.87364 24.0125 4.60035 23.9148 4.34595C23.817 4.09156 23.6395 3.86629 23.4023 3.69587ZM16.1144 11.7046C16.1032 11.7987 16.0709 11.89 16.0193 11.9731C15.9677 12.0563 15.8979 12.1297 15.8138 12.1892C15.7297 12.2487 15.6329 12.2932 15.5291 12.32C15.4254 12.3468 15.3165 12.3554 15.2089 12.3454C13.0754 12.1496 10.9242 12.1496 8.79071 12.3454C8.57383 12.3647 8.35705 12.308 8.18787 12.1879C8.01868 12.0677 7.91087 11.8939 7.88807 11.7044C7.86526 11.5149 7.92932 11.3252 8.0662 11.1769C8.20308 11.0286 8.40162 10.9338 8.61834 10.9132C10.8665 10.7068 13.1332 10.7068 15.3813 10.9132C15.4889 10.9231 15.5932 10.9514 15.6883 10.9965C15.7833 11.0417 15.8673 11.1027 15.9354 11.1762C16.0035 11.2497 16.0543 11.3342 16.085 11.4249C16.1157 11.5155 16.1257 11.6106 16.1144 11.7046Z" fill="#FFCE38"/>
</svg>
